/* XPM */
static char * wall_xpm[] = {
"32 32 3 1",
" 	c #804037",
".	c #3E2731",
"+	c #733E39",
"   .       .       .       .    ",
"++ .++++++ .++++++ .++++++ .++++",
"++ .++++++ .++++++ .++++++ .++++",
"................................",
".       .       .       .       ",
".++++++ .++++++ .++++++ .++++++ ",
".++++++ .++++++ .++++++ .++++++ ",
"................................",
"   .       .       .       .    ",
"++ .++++++ .++++++ .++++++ .++++",
"++ .++++++ .++++++ .++++++ .++++",
"................................",
".       .       .       .       ",
".++++++ .++++++ .++++++ .++++++ ",
".++++++ .++++++ .++++++ .++++++ ",
"................................",
"   .       .       .       .    ",
"++ .++++++ .++++++ .++++++ .++++",
"++ .++++++ .++++++ .++++++ .++++",
"................................",
".       .       .       .       ",
".++++++ .++++++ .++++++ .++++++ ",
".++++++ .++++++ .++++++ .++++++ ",
"................................",
"   .       .       .       .    ",
"++ .++++++ .++++++ .++++++ .++++",
"++ .++++++ .++++++ .++++++ .++++",
"................................",
".       .       .       .       ",
".++++++ .++++++ .++++++ .++++++ ",
".++++++ .++++++ .++++++ .++++++ ",
"................................"};
