/* XPM */
static char * wall_nord_xpm[] = {
"32 32 4 1",
" 	c #001C40",
".	c #DE5954",
"+	c #770702",
"@	c #D11007",
"                                ",
" .............................. ",
" +............................. ",
" ++@@@@@@@@@@@@@@@@@@@@@@@@@@.. ",
" ++@@@@@@@@@@@@@@@@@@@@@@@@@@.. ",
" ++@@@@@@@@@@@@@@@@@@@@@@@@@@.. ",
" ++@@@@@@@@@@@@@@@@@@@@@@@@@@.. ",
" ++@@@@@@@@@@@@@@@@@@@@@@@@@@.. ",
" ++@@@@@@@@@@@@@@@@@@@@@@@@@@.. ",
" ++@@@@@@@@@@@@@@@@@@@@@@@@@@.. ",
" ++@@@@@@@@@@@@@@@@@@@@@@@@@@.. ",
" ++@@@@@@@@@@@@@@@@@@@@@@@@@@.. ",
" ++@@@@@@@@@@@@@@@@@@@@@@@@@@.. ",
" ++@@@@@@@@@@@@@@@@@@@@@@@@@@.. ",
" ++@@@@@@@@@@@@@@@@@@@@@@@@@@.. ",
" ++@@@@@@@@@@@@@@@@@@@@@@@@@@.. ",
" ++@@@@@@@@@@@@@@@@@@@@@@@@@@.. ",
" ++@@@@@@@@@@@@@@@@@@@@@@@@@@.. ",
" ++@@@@@@@@@@@@@@@@@@@@@@@@@@.. ",
" ++@@@@@@@@@@@@@@@@@@@@@@@@@@.. ",
" ++@@@@@@@@@@@@@@@@@@@@@@@@@@.. ",
" ++@@@@@@@@@@@@@@@@@@@@@@@@@@.. ",
" ++@@@@@@@@@@@@@@@@@@@@@@@@@@.. ",
" ++@@@@@@@@@@@@@@@@@@@@@@@@@@.. ",
" ++@@@@@@@@@@@@@@@@@@@@@@@@@@.. ",
" ++@@@@@@@@@@@@@@@@@@@@@@@@@@.. ",
" ++@@@@@@@@@@@@@@@@@@@@@@@@@@.. ",
" ++@@@@@@@@@@@@@@@@@@@@@@@@@@.. ",
" ++@@@@@@@@@@@@@@@@@@@@@@@@@@.. ",
" +++++++++++++++++++++++++++++. ",
" ++++++++++++++++++++++++++++++ ",
"                                "};
